<svg xmlns="http://www.w3.org/2000/svg" xmlns:xlink="http://www.w3.org/1999/xlink" viewBox="0 0 24 24" fill="#FFFFFF">
  <path d="M13.5 2C10.101563 2 7.789063 3.585938 6.6875 6.1875C7.789063 5.386719 10.101563 4.5 13 5C10.199219 5 6.695313 6.992188 6.09375 8.59375C5.992188 8.992188 6 9.5 6 10C6 11.101563 6.105469 12.207031 6.40625 13.40625C6.605469 14.304688 6.789063 15.195313 7.1875 16.09375C7.289063 16.492188 7.488281 16.789063 7.6875 17.1875C7.886719 17.585938 8.105469 18.101563 8.40625 18.5C9.605469 20.5 11.394531 22 13.59375 22C17.09375 22 19.40625 18.511719 20.40625 14.8125C19.207031 15.613281 16.898438 16.5 14 16C16.601563 16 19.914063 14.289063 20.8125 12.6875C21.011719 11.789063 21 10.800781 21 10C21 5.101563 18.199219 2 13.5 2 Z M 13.5 8C16.699219 8 19 9.398438 19 11.5C19 12.898438 17.898438 14 16.5 14C15.101563 14 14.5 13 13.5 13C12.5 13 11.898438 14 10.5 14C9.101563 14 8 12.898438 8 11.5C8 9.398438 10.300781 8 13.5 8 Z M 11 10C10.449219 10 10 10.449219 10 11C10 11.550781 10.449219 12 11 12C11.550781 12 12 11.550781 12 11C12 10.449219 11.550781 10 11 10 Z M 16 10C15.449219 10 15 10.449219 15 11C15 11.550781 15.449219 12 16 12C16.550781 12 17 11.550781 17 11C17 10.449219 16.550781 10 16 10 Z M 5.40625 13.5C4.707031 13.601563 3.914063 14.1875 3.3125 15.1875C2.3125 16.488281 2 19 2 19C2 19 3.09375 18.6875 4.09375 18.1875C4.792969 17.886719 5.414063 17.40625 5.8125 16.90625C6.011719 16.707031 6.085938 16.386719 6.1875 16.1875C5.886719 15.289063 5.605469 14.398438 5.40625 13.5 Z M 6.59375 17.1875C6.394531 17.488281 6.199219 17.699219 6 18C5.398438 18.699219 4.695313 19.011719 4.09375 19.3125C3.992188 20.3125 4 21.1875 4 21.1875C4 21.1875 6.511719 20 7.3125 18.5C7.113281 18.101563 6.792969 17.6875 6.59375 17.1875Z" fill="#FFFFFF" />
</svg>