<svg xmlns="http://www.w3.org/2000/svg" xmlns:xlink="http://www.w3.org/1999/xlink" viewBox="0 0 24 24" fill="#000000">
  <path d="M11 1L11 3.0585938C6.8057199 3.514863 3.514863 6.8057199 3.0585938 11L1 11L1 13L3.0585938 13C3.514863 17.19428 6.8057199 20.485137 11 20.941406L11 23L13 23L13 20.941406C17.19428 20.485137 20.485137 17.19428 20.941406 13L23 13L23 11L20.941406 11C20.485137 6.8057199 17.19428 3.514863 13 3.0585938L13 1L11 1 z M 12 5C15.9 5 19 8.1 19 12C19 15.9 15.9 19 12 19C8.1 19 5 15.9 5 12C5 8.1 8.1 5 12 5 z M 12 9 A 3 3 0 0 0 9 12 A 3 3 0 0 0 12 15 A 3 3 0 0 0 15 12 A 3 3 0 0 0 12 9 z" fill="#4A2A9C" />
</svg>